<?xml version="1.0" encoding="UTF-8"?>
<svg width="70px" height="56px" viewBox="0 0 70 56" version="1.1" xmlns="http://www.w3.org/2000/svg" xmlns:xlink="http://www.w3.org/1999/xlink">
    <!-- Generator: sketchtool 51.1 (57501) - http://www.bohemiancoding.com/sketch -->
    <title>5DC883D4-C7A5-4385-998C-B04E13D8A888</title>
    <desc>Created with sketchtool.</desc>
    <defs></defs>
    <g id="Page-1" stroke="none" stroke-width="1" fill="none" fill-rule="evenodd">
        <g id="Tablet" transform="translate(-27.000000, -708.000000)" fill="#FFFFFF" fill-rule="nonzero">
            <g id="testimonials" transform="translate(-17.000000, 602.000000)">
                <g id="noun_92641_cc" transform="translate(44.000000, 106.000000)">
                    <path d="M35,0 C15.7,0 0,11.2603232 0,25.1346499 C0,31.6696589 3.5,37.9030521 9.7,42.5278276 L4.5,52.3806104 C4,53.3859964 4.2,54.5924596 4.9,55.2962298 C5.4,55.7989228 6,56 6.7,56 C7.1,56 7.5,55.8994614 7.9,55.6983842 L21.9,48.3590664 C26,49.6660682 30.5,50.2692998 35,50.2692998 C54.3,50.2692998 70,39.0089767 70,25.1346499 C70,11.2603232 54.3,0 35,0 Z M35,45.2423698 C30.6,45.2423698 26.3,44.6391382 22.3,43.3321364 C21.7,43.1310592 21,43.2315978 20.4,43.5332136 L12.6,47.6552962 L15.1,42.929982 C15.7,41.8240575 15.3,40.3159785 14.2,39.6122083 C8.2,35.7917415 5,30.6642729 5,25.1346499 C5,14.0754039 18.5,5.02692998 35,5.02692998 C51.5,5.02692998 65,14.0754039 65,25.1346499 C65,36.1938959 51.5,45.2423698 35,45.2423698 Z" id="Shape"></path>
                    <circle id="Oval" cx="35" cy="25" r="5"></circle>
                    <circle id="Oval" cx="47" cy="25" r="5"></circle>
                    <circle id="Oval" cx="22" cy="25" r="5"></circle>
                </g>
            </g>
        </g>
    </g>
</svg>