<svg width="195" height="42" viewBox="0 0 195 42" fill="none" xmlns="http://www.w3.org/2000/svg">
<path d="M53.2038 39.7817C53.4183 39.7817 53.5469 39.6944 53.5469 39.4324V26.4648H57.1073C60.4531 26.4648 61.3968 24.6746 61.3968 21.9676V13.4535C61.3968 10.7901 60.2387 9.21831 57.0644 9.21831H49.3432C49.1287 9.21831 49 9.3493 49 9.56761V39.4324C49 39.5634 49.0858 39.7817 49.3432 39.7817H53.2038ZM56.6354 13.6282C56.807 13.6282 56.8499 13.6718 56.8499 13.8465V21.8366C56.8499 22.0113 56.807 22.0549 56.6354 22.0549H53.5469V13.6282H56.6354Z" fill="black"/>
<path d="M72.6197 39.7817C72.8342 39.7817 72.9629 39.6944 72.9629 39.4324V35.7211C72.9629 35.5465 72.8342 35.3718 72.6197 35.3718H68.5018V9.56761C68.5018 9.3493 68.3731 9.21831 68.1586 9.21831H64.298C64.0835 9.21831 63.9548 9.3493 63.9548 9.56761V39.4324C63.9548 39.5634 64.0406 39.7817 64.298 39.7817H72.6197Z" fill="black"/>
<path d="M78.6151 9.21831C78.3577 9.21831 78.2719 9.43662 78.2719 9.56761L73.1673 39.4324C73.1673 39.6507 73.296 39.7817 73.5105 39.7817H77.5427C77.7572 39.7817 77.8859 39.6507 77.8859 39.4324L78.9582 32.1408H82.5186L83.5052 39.4324C83.5052 39.6507 83.6768 39.7817 83.8484 39.7817H87.8805C88.095 39.7817 88.2237 39.6507 88.2237 39.4324L83.3765 9.56761C83.3765 9.43662 83.2907 9.21831 83.0333 9.21831H78.6151ZM80.8457 19.3479L81.9609 27.7746H79.6017L80.8457 19.3479Z" fill="black"/>
<path d="M95.1812 39.7817C95.3528 39.7817 95.5243 39.6944 95.5243 39.4324V29.3465L99.7281 9.56761C99.8139 9.3493 99.5994 9.21831 99.4278 9.21831H95.5243C95.3528 9.21831 95.2241 9.3493 95.1812 9.56761L93.2509 20.0901L91.2777 9.56761C91.2348 9.3493 91.149 9.21831 90.9345 9.21831H87.0739C86.9023 9.21831 86.6878 9.3493 86.7307 9.56761L90.9774 29.3465V39.4324C90.9774 39.5634 91.0632 39.7817 91.3206 39.7817H95.1812Z" fill="black"/>
<path d="M113.338 23.7141H107.676C107.461 23.7141 107.332 23.8451 107.332 24.0197V27.731C107.332 27.862 107.418 28.0803 107.676 28.0803H109.134V35.3718C109.134 35.5465 109.091 35.5901 108.92 35.5901H105.402C105.23 35.5901 105.188 35.5465 105.188 35.3718V13.6282C105.188 13.4535 105.23 13.4099 105.402 13.4099H108.92C109.091 13.4099 109.134 13.4535 109.134 13.6282V17.2958C109.134 17.5141 109.306 17.6014 109.477 17.6014H113.338C113.552 17.6014 113.681 17.5141 113.681 17.2958V13.2352C113.681 10.5718 112.523 9 109.348 9H104.973C101.799 9 100.641 10.5718 100.641 13.2789V35.8084C100.641 38.4282 101.627 40 105.059 40H109.391C112.737 40 113.681 38.4282 113.681 35.7211V24.0197C113.681 23.8014 113.552 23.7141 113.338 23.7141Z" fill="black"/>
<path d="M129.387 39.7817C129.601 39.7817 129.773 39.6944 129.73 39.4324L125.955 26.6394C128.529 26.3775 129.301 24.8493 129.301 22.4042V13.4535C129.301 10.7901 128.143 9.21831 124.969 9.21831H117.247C117.033 9.21831 116.904 9.3493 116.904 9.56761V39.4324C116.904 39.5634 116.99 39.7817 117.247 39.7817H121.108C121.322 39.7817 121.451 39.6944 121.451 39.4324V27.3817L124.754 39.4324C124.754 39.5634 124.84 39.7817 125.097 39.7817H129.387ZM124.54 13.6282C124.711 13.6282 124.754 13.6718 124.754 13.8465V22.0549C124.754 22.2296 124.711 22.2732 124.54 22.2732H121.451V13.6282H124.54Z" fill="black"/>
<path d="M136.56 40H140.893C144.239 40 145.182 38.4282 145.182 35.7211V13.2352C145.182 10.5718 144.024 9 140.85 9H136.475C133.3 9 132.142 10.5718 132.142 13.2789V35.8084C132.142 38.4282 133.129 40 136.56 40ZM140.635 13.6282V35.3718C140.635 35.5465 140.593 35.5901 140.421 35.5901H136.904C136.732 35.5901 136.689 35.5465 136.689 35.3718V13.6282C136.689 13.4535 136.732 13.4099 136.904 13.4099H140.421C140.593 13.4099 140.635 13.4535 140.635 13.6282Z" fill="black"/>
<path d="M152.948 35.3718V9.56761C152.948 9.3493 152.819 9.21831 152.604 9.21831H148.744C148.529 9.21831 148.401 9.3493 148.401 9.56761V35.8084C148.401 38.4282 149.387 40 152.819 40H157.151C160.497 40 161.441 38.4282 161.441 35.7211V9.56761C161.441 9.3493 161.312 9.21831 161.141 9.21831H157.237C157.066 9.21831 156.894 9.3493 156.894 9.56761V35.3718C156.894 35.5465 156.851 35.5901 156.679 35.5901H153.162C152.99 35.5901 152.948 35.5465 152.948 35.3718Z" fill="black"/>
<path d="M177.775 39.7817C177.947 39.7817 178.118 39.6944 178.118 39.4324V9.56761C178.118 9.3493 177.947 9.21831 177.775 9.21831H174C173.786 9.21831 173.657 9.3493 173.657 9.56761V24.107L169.625 9.56761C169.625 9.3493 169.496 9.21831 169.282 9.21831H165.421C165.207 9.21831 165.078 9.3493 165.078 9.56761V39.4324C165.078 39.5634 165.164 39.7817 165.421 39.7817H169.196C169.41 39.7817 169.539 39.6944 169.539 39.4324V24.893L173.571 39.4324C173.571 39.5634 173.657 39.7817 173.914 39.7817H177.775Z" fill="black"/>
<path d="M182.303 39.7817H190.71C194.056 39.7817 195 38.2099 195 35.5028V13.4535C195 10.7901 193.842 9.21831 190.668 9.21831H182.303C182.088 9.21831 181.96 9.3493 181.96 9.56761V39.4324C181.96 39.5634 182.046 39.7817 182.303 39.7817ZM190.239 13.6282C190.41 13.6282 190.453 13.6718 190.453 13.8465V35.1535C190.453 35.3282 190.41 35.3718 190.239 35.3718H186.507V13.6282H190.239Z" fill="black"/>
<path d="M0 0H42V42H0V0Z" fill="black"/>
<path d="M22.4029 35.5028V9.56761C22.4029 9.3493 22.234 9.21831 22.0651 9.21831H18.2648C18.0537 9.21831 17.927 9.3493 17.927 9.56761V35.1535C17.927 35.3282 17.8848 35.3718 17.7159 35.3718H14.3378C14.1267 35.3718 14 35.5028 14 35.6775V39.4324C14 39.5634 14.0845 39.7817 14.3378 39.7817H18.1803C21.4739 39.7817 22.4029 38.2099 22.4029 35.5028Z" fill="#FEF86E"/>
<path d="M25.1634 22.4915C25.1634 26.0718 26.3879 26.6831 29.4282 26.6831H33.313C33.4819 26.6831 33.5241 26.7268 33.5241 26.9014V35.3718C33.5241 35.5465 33.4819 35.5901 33.313 35.5901H29.8505C29.6815 35.5901 29.6393 35.5465 29.6393 35.3718V31.3113C29.6393 31.093 29.4704 31.0056 29.3015 31.0056H25.5012C25.2901 31.0056 25.1634 31.093 25.1634 31.3113V35.8084C25.1634 38.4282 26.1346 40 29.5126 40H33.7774C37.071 40 38 38.4282 38 35.7211V26.4648C38 23.8451 37.071 22.2732 33.7352 22.2732H29.8505C29.6815 22.2732 29.6393 22.2296 29.6393 22.0549V13.6282C29.6393 13.4535 29.6815 13.4099 29.8505 13.4099H33.313C33.4819 13.4099 33.5241 13.4535 33.5241 13.6282V17.2958C33.5241 17.5141 33.693 17.6014 33.8619 17.6014H37.6622C37.8733 17.6014 38 17.5141 38 17.2958V13.2352C38 10.5718 36.8599 9 33.7352 9H29.4282C26.3035 9 25.1634 10.5718 25.1634 13.2789V22.4915Z" fill="#FEF86E"/>
</svg>
