<svg width="146" height="194" viewBox="0 0 146 194" fill="none" xmlns="http://www.w3.org/2000/svg">
<path d="M4.20377 193.782C4.41825 193.782 4.54694 193.694 4.54694 193.432V180.465H8.10728C11.4531 180.465 12.3968 178.675 12.3968 175.968V167.454C12.3968 164.79 11.2387 163.218 8.06438 163.218H0.343165C0.128687 163.218 0 163.349 0 163.568V193.432C0 193.563 0.0857912 193.782 0.343165 193.782H4.20377ZM7.63542 167.628C7.80701 167.628 7.8499 167.672 7.8499 167.846V175.837C7.8499 176.011 7.80701 176.055 7.63542 176.055H4.54694V167.628H7.63542Z" fill="black"/>
<path d="M23.6197 193.782C23.8342 193.782 23.9629 193.694 23.9629 193.432V189.721C23.9629 189.546 23.8342 189.372 23.6197 189.372H19.5018V163.568C19.5018 163.349 19.3731 163.218 19.1586 163.218H15.298C15.0835 163.218 14.9548 163.349 14.9548 163.568V193.432C14.9548 193.563 15.0406 193.782 15.298 193.782H23.6197Z" fill="black"/>
<path d="M29.6151 163.218C29.3577 163.218 29.2719 163.437 29.2719 163.568L24.1673 193.432C24.1673 193.651 24.296 193.782 24.5105 193.782H28.5427C28.7572 193.782 28.8859 193.651 28.8859 193.432L29.9582 186.141H33.5186L34.5052 193.432C34.5052 193.651 34.6768 193.782 34.8484 193.782H38.8805C39.095 193.782 39.2237 193.651 39.2237 193.432L34.3765 163.568C34.3765 163.437 34.2907 163.218 34.0333 163.218H29.6151ZM31.8457 173.348L32.9609 181.775H30.6017L31.8457 173.348Z" fill="black"/>
<path d="M46.1812 193.782C46.3528 193.782 46.5243 193.694 46.5243 193.432V183.346L50.7281 163.568C50.8139 163.349 50.5994 163.218 50.4278 163.218H46.5243C46.3528 163.218 46.2241 163.349 46.1812 163.568L44.2509 174.09L42.2777 163.568C42.2348 163.349 42.149 163.218 41.9345 163.218H38.0739C37.9023 163.218 37.6878 163.349 37.7307 163.568L41.9774 183.346V193.432C41.9774 193.563 42.0632 193.782 42.3206 193.782H46.1812Z" fill="black"/>
<path d="M64.3378 177.714H58.6755C58.4611 177.714 58.3324 177.845 58.3324 178.02V181.731C58.3324 181.862 58.4182 182.08 58.6755 182.08H60.134V189.372C60.134 189.546 60.0911 189.59 59.9195 189.59H56.4021C56.2305 189.59 56.1876 189.546 56.1876 189.372V167.628C56.1876 167.454 56.2305 167.41 56.4021 167.41H59.9195C60.0911 167.41 60.134 167.454 60.134 167.628V171.296C60.134 171.514 60.3056 171.601 60.4771 171.601H64.3378C64.5522 171.601 64.6809 171.514 64.6809 171.296V167.235C64.6809 164.572 63.5227 163 60.3485 163H55.9731C52.7988 163 51.6406 164.572 51.6406 167.279V189.808C51.6406 192.428 52.6273 194 56.0589 194H60.3914C63.7372 194 64.6809 192.428 64.6809 189.721V178.02C64.6809 177.801 64.5522 177.714 64.3378 177.714Z" fill="black"/>
<path d="M80.3868 193.782C80.6012 193.782 80.7728 193.694 80.7299 193.432L76.9551 180.639C79.5288 180.377 80.301 178.849 80.301 176.404V167.454C80.301 164.79 79.1428 163.218 75.9685 163.218H68.2473C68.0328 163.218 67.9041 163.349 67.9041 163.568V193.432C67.9041 193.563 67.9899 193.782 68.2473 193.782H72.1079C72.3224 193.782 72.4511 193.694 72.4511 193.432V181.382L75.754 193.432C75.754 193.563 75.8398 193.782 76.0972 193.782H80.3868ZM75.5396 167.628C75.7111 167.628 75.754 167.672 75.754 167.846V176.055C75.754 176.23 75.7111 176.273 75.5396 176.273H72.4511V167.628H75.5396Z" fill="black"/>
<path d="M87.5604 194H91.8928C95.2387 194 96.1824 192.428 96.1824 189.721V167.235C96.1824 164.572 95.0242 163 91.8499 163H87.4746C84.3003 163 83.1421 164.572 83.1421 167.279V189.808C83.1421 192.428 84.1287 194 87.5604 194ZM91.6355 167.628V189.372C91.6355 189.546 91.5926 189.59 91.421 189.59H87.9035C87.732 189.59 87.6891 189.546 87.6891 189.372V167.628C87.6891 167.454 87.732 167.41 87.9035 167.41H91.421C91.5926 167.41 91.6355 167.454 91.6355 167.628Z" fill="black"/>
<path d="M103.948 189.372V163.568C103.948 163.349 103.819 163.218 103.604 163.218H99.7437C99.5293 163.218 99.4006 163.349 99.4006 163.568V189.808C99.4006 192.428 100.387 194 103.819 194H108.151C111.497 194 112.441 192.428 112.441 189.721V163.568C112.441 163.349 112.312 163.218 112.141 163.218H108.237C108.066 163.218 107.894 163.349 107.894 163.568V189.372C107.894 189.546 107.851 189.59 107.679 189.59H104.162C103.99 189.59 103.948 189.546 103.948 189.372Z" fill="black"/>
<path d="M128.775 193.782C128.947 193.782 129.118 193.694 129.118 193.432V163.568C129.118 163.349 128.947 163.218 128.775 163.218H125C124.786 163.218 124.657 163.349 124.657 163.568V178.107L120.625 163.568C120.625 163.349 120.496 163.218 120.282 163.218H116.421C116.207 163.218 116.078 163.349 116.078 163.568V193.432C116.078 193.563 116.164 193.782 116.421 193.782H120.196C120.41 193.782 120.539 193.694 120.539 193.432V178.893L124.571 193.432C124.571 193.563 124.657 193.782 124.914 193.782H128.775Z" fill="black"/>
<path d="M133.303 193.782H141.71C145.056 193.782 146 192.21 146 189.503V167.454C146 164.79 144.842 163.218 141.668 163.218H133.303C133.088 163.218 132.96 163.349 132.96 163.568V193.432C132.96 193.563 133.046 193.782 133.303 193.782ZM141.239 167.628C141.41 167.628 141.453 167.672 141.453 167.846V189.154C141.453 189.328 141.41 189.372 141.239 189.372H137.507V167.628H141.239Z" fill="black"/>
<path d="M0 0H146V146H0V0Z" fill="black"/>
<path d="M77.8768 123.415V33.2588C77.8768 32.4999 77.2896 32.0446 76.7025 32.0446H63.4919C62.758 32.0446 62.3176 32.4999 62.3176 33.2588V122.2C62.3176 122.807 62.1709 122.959 61.5837 122.959H49.841C49.107 122.959 48.6667 123.415 48.6667 124.022V137.075C48.6667 137.53 48.9603 138.289 49.841 138.289H63.1983C74.6475 138.289 77.8768 132.825 77.8768 123.415Z" fill="#FEF86E"/>
<path d="M87.4728 78.1849C87.4728 90.6306 91.7296 92.7555 102.298 92.7555H115.802C116.389 92.7555 116.536 92.9073 116.536 93.5144V122.959C116.536 123.566 116.389 123.718 115.802 123.718H103.766C103.179 123.718 103.032 123.566 103.032 122.959V108.844C103.032 108.085 102.445 107.781 101.858 107.781H88.6471C87.9132 107.781 87.4728 108.085 87.4728 108.844V124.477C87.4728 133.584 90.8489 139.048 102.592 139.048H117.417C128.866 139.048 132.095 133.584 132.095 124.173V91.9966C132.095 82.89 128.866 77.426 117.27 77.426H103.766C103.179 77.426 103.032 77.2742 103.032 76.6671V47.3741C103.032 46.767 103.179 46.6152 103.766 46.6152H115.802C116.389 46.6152 116.536 46.767 116.536 47.3741V60.1234C116.536 60.8823 117.123 61.1858 117.71 61.1858H130.921C131.655 61.1858 132.095 60.8823 132.095 60.1234V46.0081C132.095 36.7497 128.132 31.2857 117.27 31.2857H102.298C91.436 31.2857 87.4728 36.7497 87.4728 46.1599V78.1849Z" fill="#FEF86E"/>
</svg>
