<svg width="24" height="24" viewBox="0 0 24 24" fill="none" xmlns="http://www.w3.org/2000/svg">
<path d="M8.08004 20C9.55874 20.0495 11.0323 19.8021 12.4138 19.2723C13.7952 18.7426 15.0565 17.9413 16.1229 16.9159C17.1894 15.8904 18.0395 14.6615 18.623 13.3019C19.2065 11.9423 19.5115 10.4795 19.52 9.00004C20.1977 8.16146 20.7009 7.19587 21 6.16004C21.0224 6.07821 21.0206 5.99166 20.9949 5.91082C20.9691 5.82998 20.9206 5.7583 20.8551 5.70441C20.7896 5.65052 20.7099 5.61672 20.6256 5.60707C20.5413 5.59743 20.456 5.61235 20.38 5.65004C20.0255 5.8207 19.6264 5.87582 19.2389 5.80765C18.8514 5.73948 18.495 5.55145 18.22 5.27004C17.869 4.88562 17.4444 4.57557 16.9713 4.35827C16.4982 4.14097 15.9863 4.02083 15.466 4.00498C14.9456 3.98913 14.4274 4.07788 13.942 4.26598C13.4566 4.45408 13.0138 4.73771 12.64 5.10004C12.1282 5.5957 11.7534 6.21533 11.5519 6.89872C11.3503 7.5821 11.329 8.306 11.49 9.00004C8.14004 9.20004 5.84004 7.61004 4.00004 5.43004C3.94476 5.36745 3.87246 5.3223 3.79194 5.30011C3.71143 5.27793 3.6262 5.27967 3.54667 5.30512C3.46713 5.33057 3.39672 5.37864 3.34405 5.44344C3.29137 5.50824 3.25871 5.58698 3.25004 5.67004C2.89951 7.61447 3.15237 9.61959 3.97466 11.4161C4.79695 13.2126 6.14929 14.7145 7.85004 15.72C6.70968 17.0279 5.10825 17.8447 3.38004 18C3.28745 18.0154 3.20198 18.0593 3.13559 18.1257C3.0692 18.192 3.02521 18.2774 3.00979 18.37C2.99436 18.4626 3.00826 18.5577 3.04954 18.6419C3.09083 18.7262 3.15744 18.7955 3.24004 18.84C4.74356 19.5914 6.39927 19.9882 8.08004 20Z" fill="#3A71B0"/>
</svg>
